<svg xmlns="http://www.w3.org/2000/svg" width="31.5" height="31.493" viewBox="0 0 31.5 31.493">
  <g id="Icon_ionic-ios-pricetags" data-name="Icon ionic-ios-pricetags" transform="translate(-2.25 -2.25)">
    <path id="Pfad_1" data-name="Pfad 1" d="M28.357,2.25H20.046a.974.974,0,0,0-.689.288L2.82,19.139a1.952,1.952,0,0,0,0,2.756l7.84,7.91a2.093,2.093,0,0,0,3.052.148L30.016,13.62a.974.974,0,0,0,.288-.689V4.2A1.948,1.948,0,0,0,28.357,2.25ZM25.13,9.809a2.164,2.164,0,1,1,1.92-1.92A2.163,2.163,0,0,1,25.13,9.809Z" fill="#10b7b0"/>
    <path id="Pfad_2" data-name="Pfad 2" d="M32.063,5.646v7.995a.974.974,0,0,1-.288.689L13.549,32.555l.619.619a1.952,1.952,0,0,0,2.756,0L33.462,16.566a.974.974,0,0,0,.288-.689v-8.3A1.949,1.949,0,0,0,32.063,5.646Z" fill="#10b7b0"/>
  </g>
</svg>
